<mxfile host="65bd71144e">
    <diagram id="H39vG9-jqC22a7TcXKVm" name="Page-1">
        <mxGraphModel dx="495" dy="468" grid="1" gridSize="10" guides="1" tooltips="1" connect="1" arrows="1" fold="1" page="1" pageScale="1" pageWidth="850" pageHeight="1100" math="0" shadow="0">
            <root>
                <mxCell id="0"/>
                <mxCell id="1" parent="0"/>
                <mxCell id="4" value="" style="swimlane;startSize=0;" vertex="1" parent="1">
                    <mxGeometry x="130" y="230" width="380" height="230" as="geometry"/>
                </mxCell>
                <mxCell id="34" value="Score: 1" style="text;html=1;strokeColor=none;fillColor=none;align=center;verticalAlign=middle;whiteSpace=wrap;rounded=0;fontSize=12;" vertex="1" parent="4">
                    <mxGeometry width="60" height="30" as="geometry"/>
                </mxCell>
                <mxCell id="35" value="Asteroid" style="ellipse;whiteSpace=wrap;html=1;aspect=fixed;fontSize=12;" vertex="1" parent="4">
                    <mxGeometry x="60" y="155" width="20" height="20" as="geometry"/>
                </mxCell>
                <mxCell id="36" value="Lives: 0" style="text;html=1;strokeColor=none;fillColor=none;align=center;verticalAlign=middle;whiteSpace=wrap;rounded=0;fontSize=12;" vertex="1" parent="4">
                    <mxGeometry y="20" width="60" height="30" as="geometry"/>
                </mxCell>
                <mxCell id="41" value="Asteroid" style="ellipse;whiteSpace=wrap;html=1;aspect=fixed;fontSize=12;" vertex="1" parent="4">
                    <mxGeometry x="295" y="30" width="70" height="70" as="geometry"/>
                </mxCell>
                <mxCell id="42" value="Game Over" style="text;html=1;strokeColor=none;fillColor=none;align=center;verticalAlign=middle;whiteSpace=wrap;rounded=0;fontSize=30;" vertex="1" parent="4">
                    <mxGeometry x="100" y="75" width="180" height="80" as="geometry"/>
                </mxCell>
            </root>
        </mxGraphModel>
    </diagram>
</mxfile>